<svg width="50.000000" height="50.000000" viewBox="0 0 50 50" fill="none" xmlns="http://www.w3.org/2000/svg" xmlns:xlink="http://www.w3.org/1999/xlink">
	<desc>
			Created with Pixso.
	</desc>
	<defs>
		<clipPath id="clip44_374">
			<rect id="Icon" rx="0.000000" width="19.000000" height="19.000000" transform="translate(15.500000 15.500000)" fill="white" fill-opacity="0"/>
		</clipPath>
		<clipPath id="clip44_373">
			<rect id="Button" rx="24.500000" width="49.000000" height="49.000000" transform="translate(0.500000 0.500000)" fill="white" fill-opacity="0"/>
		</clipPath>
		<linearGradient x1="25.000006" y1="0.999994" x2="25.000006" y2="49.000000" id="paint_linear_44_373_0" gradientUnits="userSpaceOnUse">
			<stop offset="0.278527" stop-color="#2F2F37"/>
			<stop offset="1.000000" stop-color="#2F2F37" stop-opacity="0.000000"/>
		</linearGradient>
	</defs>
	<rect id="Button" rx="24.500000" width="49.000000" height="49.000000" transform="translate(0.500000 0.500000)" fill="#1C1C21" fill-opacity="1.000000"/>
	<g clip-path="url(#clip44_373)">
		<rect id="Icon" rx="0.000000" width="19.000000" height="19.000000" transform="translate(15.500000 15.500000)" fill="#FFFFFF" fill-opacity="0"/>
		<g clip-path="url(#clip44_374)">
			<path id="Vector" d="M35 25C35 19.47 30.52 15 25 15C19.47 15 15 19.47 15 25C15 29.99 18.65 34.12 23.43 34.87L23.43 27.89L20.89 27.89L20.89 25L23.43 25L23.43 22.79C23.43 20.29 24.93 18.9 27.21 18.9C28.3 18.9 29.45 19.1 29.45 19.1L29.45 21.56L28.19 21.56C26.95 21.56 26.56 22.33 26.56 23.12L26.56 25L29.33 25L28.89 27.89L26.56 27.89L26.56 34.87C31.34 34.12 35 29.99 35 25Z" fill="#FFFFFF" fill-opacity="1.000000" fill-rule="nonzero"/>
		</g>
	</g>
	<rect id="Button" rx="24.500000" width="49.000000" height="49.000000" transform="translate(0.500000 0.500000)" stroke="url(#paint_linear_44_373_0)" stroke-opacity="1.000000" stroke-width="1.000000"/>
</svg>
