<svg width="50.000000" height="50.000000" viewBox="0 0 50 50" fill="none" xmlns="http://www.w3.org/2000/svg" xmlns:xlink="http://www.w3.org/1999/xlink">
	<desc>
			Created with Pixso.
	</desc>
	<defs>
		<clipPath id="clip44_380">
			<rect id="Icon" rx="0.000000" width="19.000000" height="19.000000" transform="translate(15.500000 15.500000)" fill="white" fill-opacity="0"/>
		</clipPath>
		<clipPath id="clip44_379">
			<rect id="Button" rx="24.500000" width="49.000000" height="49.000000" transform="translate(0.500000 0.500000)" fill="white" fill-opacity="0"/>
		</clipPath>
		<linearGradient x1="25.000006" y1="0.999994" x2="25.000006" y2="49.000000" id="paint_linear_44_379_0" gradientUnits="userSpaceOnUse">
			<stop offset="0.278527" stop-color="#2F2F37"/>
			<stop offset="1.000000" stop-color="#2F2F37" stop-opacity="0.000000"/>
		</linearGradient>
	</defs>
	<rect id="Button" rx="24.500000" width="49.000000" height="49.000000" transform="translate(0.500000 0.500000)" fill="#1C1C21" fill-opacity="1.000000"/>
	<g clip-path="url(#clip44_379)">
		<rect id="Icon" rx="0.000000" width="19.000000" height="19.000000" transform="translate(15.500000 15.500000)" fill="#FFFFFF" fill-opacity="0"/>
		<g clip-path="url(#clip44_380)">
			<path id="Vector" d="M33.51 15L16.47 15C15.66 15 15 15.64 15 16.44L15 33.55C15 34.35 15.66 35 16.47 35L33.51 35C34.33 35 35 34.35 35 33.55L35 16.44C35 15.64 34.33 15 33.51 15ZM20.93 32.04L17.96 32.04L17.96 22.49L20.93 22.49L20.93 32.04ZM19.44 21.19C18.49 21.19 17.72 20.42 17.72 19.47C17.72 18.52 18.49 17.75 19.44 17.75C20.39 17.75 21.16 18.52 21.16 19.47C21.16 20.42 20.39 21.19 19.44 21.19ZM32.04 32.04L29.07 32.04L29.07 27.4C29.07 26.29 29.05 24.87 27.53 24.87C25.99 24.87 25.75 26.07 25.75 27.32L25.75 32.04L22.79 32.04L22.79 22.49L25.64 22.49L25.64 23.8L25.67 23.8C26.07 23.05 27.04 22.25 28.48 22.25C31.48 22.25 32.04 24.23 32.04 26.8L32.04 32.04Z" fill="#FFFFFF" fill-opacity="1.000000" fill-rule="nonzero"/>
		</g>
	</g>
	<rect id="Button" rx="24.500000" width="49.000000" height="49.000000" transform="translate(0.500000 0.500000)" stroke="url(#paint_linear_44_379_0)" stroke-opacity="1.000000" stroke-width="1.000000"/>
</svg>
